<?xml version="1.0" encoding="utf-8"?>
<!-- Generator: Adobe Illustrator 22.0.0, SVG Export Plug-In . SVG Version: 6.00 Build 0)  -->
<svg version="1.1" id="Layer_1" xmlns="http://www.w3.org/2000/svg" xmlns:xlink="http://www.w3.org/1999/xlink" x="0px" y="0px"
	 viewBox="0 0 132.3 71.3" style="enable-background:new 0 0 132.3 71.3;" xml:space="preserve">
<style type="text/css">
	.st0{fill:none;}
</style>
<g>
	<path class="st0" d="M74.6,46.1c0.5-0.2,0.9-0.7,0.9-1.3l0.4-4.7l-1.4-0.5l-6.3,9.7L74.6,46.1z"/>
</g>
<g>
	<path class="st0" d="M33.1,43.7c-1.9,1.1-3.9,1.6-6,1.6c-2,0-4-0.5-5.8-1.5c0.2,2.9,2.1,6.2,4.3,7.3c0.7,0.3,1.2,0.8,1.6,1.4
		c0.4-0.6,0.9-1.1,1.6-1.4C31.3,49.9,33,46.4,33.1,43.7z"/>
</g>
<g>
	<path class="st0" d="M66.9,51.8v2h21.2v-9.4l-10.7-3.8l-0.3,4.3C77,46,76.4,47,75.4,47.5L66.9,51.8z"/>
</g>
<g>
	<path class="st0" d="M57.5,46.2l6.4,3.2l-6.2-9.8l-1.5,0.6l0.4,4.7C56.7,45.4,57,45.9,57.5,46.2z"/>
</g>
<g>
	<rect x="44" y="60" class="st0" width="21.3" height="6.4"/>
</g>
<g>
	<rect x="44" y="55.4" class="st0" width="21.3" height="3.1"/>
</g>
<g>
	<path class="st0" d="M34.1,53.9L33.5,65c0,0.4,0.1,0.7,0.4,1c0.3,0.2,0.6,0.4,1,0.4h7.6V45.1l-2.4,0.8
		C36.7,47.1,34.3,50.3,34.1,53.9z"/>
</g>
<g>
	<path class="st0" d="M25,52.4c-3.1-1.6-5.1-5.9-5.1-9.1h-0.3c-1,0-1.9,0.1-2.8,0.3c0.8,7.2-1.5,10.4-3.7,12.4
		c-1.4,1.3-1.9,3.3-1.9,4.7v0.2h15.3V55C26.5,53.9,25.9,52.8,25,52.4z"/>
</g>
<g>
	<path class="st0" d="M66.1,40.3c1.7,0,3.4-0.3,5-0.9l0.2-0.1l-0.1-0.2c0-0.2,0-0.3-0.1-0.4v-2.1l-0.3,0.1c-0.4,0.2-0.8,0.3-1.2,0.4
		h-0.1c-2.8,0.7-4.1,0.7-6.9,0c-0.4-0.1-0.8-0.2-1.2-0.4l-0.3-0.1v2.1c0,0.2,0,0.3,0,0.4L61,39.3l0.2,0.1
		C62.7,40,64.4,40.3,66.1,40.3z"/>
</g>
<g>
	<path class="st0" d="M34.8,43.3L34.8,43.3c-0.1,3.2-2.1,7.6-5.3,9.1C28.6,52.9,28,53.9,28,55v5.9h4.2l0.4-7.2
		c0.3-3.6,2.3-6.8,5.4-8.5c0-0.5,0-1,0.1-1.5C37,43.4,35.9,43.3,34.8,43.3z"/>
</g>
<g>
	<path class="st0" d="M12.2,54.9c1.9-1.7,3.9-4.5,3.2-10.9C8.9,46.1,4.1,52.8,4.1,60.7v0.2h5.7v-0.2C9.8,60.1,9.9,57,12.2,54.9z"/>
</g>
<g>
	<path class="st0" d="M99.7,53.7l0.4,7.3h4.3v-5.9c0-1.1-0.6-2.2-1.5-2.6c-3.2-1.6-5.2-5.9-5.2-9.1h-0.1c-1.2,0-2.2,0.1-3.3,0.4
		c0,0.4,0.1,0.9,0.1,1.3c0.2,0.1,0.4,0.2,0.6,0.4C97.7,47.4,99.5,50.4,99.7,53.7z"/>
</g>
<g>
	<path class="st0" d="M32.5,42.5l0.3-0.2v-5.9c-0.4,0.2-0.9,0.4-1.3,0.5c-0.1,0-1.8,0.5-4.2,0.5c-1.3,0-2.7-0.2-4.3-0.6
		c-0.5-0.2-1-0.4-1.5-0.5v6l0.3,0.2C25.1,44.5,29.2,44.5,32.5,42.5z"/>
</g>
<g>
	<path class="st0" d="M39.3,30.3c-1.2,2.1-2.9,3.9-5,5.2V38c4.5,0.1,7.4-1.3,8.7-2.2C41.1,34.4,39.9,32,39.3,30.3z"/>
</g>
<g>
	<path class="st0" d="M15.1,30.1c-0.6,1.7-1.7,4.3-3.8,5.7c1.3,0.8,4.2,2.3,8.7,2.2v-2.6C17.9,34.1,16.2,32.3,15.1,30.1z"/>
</g>
<g>
	<path class="st0" d="M110.3,42.4l0.3-0.2v-6c-0.5,0.2-1,0.4-1.5,0.5c-1.6,0.5-3,0.6-4.3,0.6c-2.4,0-4.1-0.5-4.2-0.5
		c-0.5-0.1-0.9-0.3-1.3-0.5v5.9l0.3,0.2C102.9,44.4,107,44.4,110.3,42.4z"/>
</g>
<g>
	<path class="st0" d="M110.8,43.8c-1.8,1-3.8,1.5-5.8,1.5c-2.1,0-4.2-0.5-6-1.6c0.1,2.7,1.8,6.2,4.3,7.4c0.7,0.3,1.2,0.8,1.6,1.4
		c0.4-0.6,0.9-1.1,1.6-1.4C108.7,50,110.6,46.7,110.8,43.8z"/>
</g>
<g>
	<path class="st0" d="M120,54.9c2.3,2.1,2.4,5.2,2.4,5.8v0.2h5.7v-0.2c0-7.9-4.8-14.6-11.3-16.7C116.1,50.4,118.1,53.2,120,54.9z"/>
</g>
<g>
	<path class="st0" d="M92.8,30.3c-0.6,1.7-1.8,4.1-3.7,5.5c1.3,0.8,4.2,2.3,8.7,2.2v-2.5C95.7,34.2,93.9,32.4,92.8,30.3z"/>
</g>
<g>
	<path class="st0" d="M56.7,47.5c-1-0.5-1.6-1.5-1.7-2.6l-0.3-4.3L44,44.4v9.4h21.2v-2L56.7,47.5z"/>
</g>
<g>
	<path class="st0" d="M92.8,44.3c0,0,0-0.1,0-0.1c-0.1,0-0.1,0-0.2,0.1L92.8,44.3C92.7,44.3,92.8,44.3,92.8,44.3z"/>
</g>
<g>
	<path class="st0" d="M107.1,52.4c-0.9,0.5-1.5,1.5-1.5,2.6v5.9h15.3v-0.2c0-1.3-0.5-3.4-1.9-4.7c-2.2-2-4.6-5.2-3.7-12.4
		c-0.9-0.2-1.9-0.3-2.8-0.3h-0.3C112.2,46.5,110.3,50.9,107.1,52.4z"/>
</g>
<g>
	<path class="st0" d="M112,35.4V38c4.5,0.1,7.4-1.3,8.7-2.2c-1.9-1.4-3.1-4-3.8-5.7C115.8,32.3,114.1,34.1,112,35.4z"/>
</g>
<g>
	<rect x="66.9" y="55.4" class="st0" width="21.3" height="3.1"/>
</g>
<g>
	<rect x="66.9" y="60" class="st0" width="21.3" height="6.4"/>
</g>
<g>
	<path class="st0" d="M71.3,40.9c-3.4,1.2-7,1.2-10.4,0l-0.7-0.2l5.9,9.2l5.9-9.2L71.3,40.9z"/>
</g>
<g>
	<path class="st0" d="M95.2,47.7c-0.5-0.4-1-0.8-1.5-1.1c-0.4-0.3-0.9-0.5-1.3-0.7c-0.1,0-0.2-0.1-0.3-0.1L89.8,45v21.4h7.6
		c0.4,0,0.7-0.1,1-0.4c0.1-0.2,0.2-0.4,0.3-0.6c0-0.1,0-0.3,0-0.4l-0.6-11.2C97.9,51.4,96.9,49.3,95.2,47.7z"/>
</g>
<g>
	<polygon points="89.7,45 89.8,45 89.8,45 	"/>
</g>
<g>
	<path d="M38,45.2c0.1-0.1,0.3-0.2,0.4-0.3C38.3,45,38.1,45.1,38,45.2C38,45.2,38,45.2,38,45.2z"/>
</g>
<g>
	<path d="M93.6,44.6c0-0.1-0.1-0.4-0.1-0.5c-0.1,0-0.3,0.3-0.4,0.3C93.2,44.3,93.5,44.6,93.6,44.6z"/>
</g>
<g>
	<polygon points="99.8,61 99.9,62.5 100.2,62.5 100.1,61 	"/>
</g>
<g>
	<path d="M94.4,45.3c0-0.1,0-0.1,0-0.2c-0.3-0.2-0.6-0.3-0.9-0.4c-0.1,0-0.1-0.1-0.2-0.1l-0.2-0.1c-0.1-0.1-0.2-0.1-0.3-0.2
		c0,0,0,0,0,0C93.4,44.6,93.9,44.9,94.4,45.3z"/>
</g>
<g>
	<path d="M92,44.1c0.2,0.1,0.3,0.1,0.5,0.2c0,0,0.1,0,0.1,0l-2-0.7c0,0-0.1,0-0.1,0L92,44.1z"/>
</g>
<path d="M112.6,41.9h-0.5v-2.4c0.1,0,0.2,0,0.3,0c6.8,0,10.1-3.2,10.2-3.3c0.2-0.2,0.3-0.4,0.2-0.7c0-0.2-0.2-0.5-0.4-0.5
	c-3.1-1.3-4.4-6.7-4.4-6.8c0-0.1,0-0.1-0.1-0.2c0.2-0.5,0.3-1,0.4-1.5h0V16.3c0,0,0-0.1,0-0.1s0-0.1,0-0.1v0h0
	c-0.1-7.1-6-12.8-13.3-12.8c-7.3,0-13.3,5.7-13.3,12.8h0v10.4c0.1,0.6,0.3,1.2,0.4,1.7c-0.1,0.4-1.4,5.5-4.4,6.8
	c-0.2,0.1-0.4,0.3-0.4,0.5s0,0.5,0.2,0.7c0.1,0.1,3.5,3.3,10.2,3.3c0.1,0,0.2,0,0.3,0v2.4h-0.4c-2.5,0-4.8,0.6-6.9,1.7l-16.1-5.7
	h-0.1c-0.1,0-0.2,0-0.2,0h-0.1c0,0,0,0-0.1,0h-0.1l-1.1,0.6v-2.9l0.1-0.1c3-2,5.4-5.6,5.9-8.9c0,0,0-0.1,0-0.1h0V16.3
	c0,0,0-0.1,0-0.1s0-0.1,0-0.1v0h0C78.7,9.1,73.1,3.4,66.2,3.4c-6.9,0-12.6,5.7-12.6,12.8h0v10.4h0v0.2c0.4,2.9,2.3,6,4.8,8.1h0.1
	c0.1,0.1,0.1,0.1,0.2,0.2l0.3,0.2c0.2,0.1,0.4,0.3,0.6,0.4l0.1,0.1v2.9l-0.4-0.2c-0.2-0.1-0.5-0.3-0.7-0.4h-0.1h-0.1h-0.1
	c-0.1,0-0.2,0-0.3,0L42,43.6c-2.1-1.1-4.7-1.8-7.1-1.8h-0.4v-2.4c0.1,0,0.2,0,0.3,0c6.8,0,10.1-3.2,10.2-3.3
	c0.2-0.2,0.3-0.4,0.2-0.7c-0.1-0.3-0.2-0.5-0.4-0.5c-3-1.3-4.3-6.4-4.4-6.8c0.2-0.5,0.3-1.1,0.4-1.6h0V16.3c0,0,0-0.1,0-0.1
	s0-0.1,0-0.1v0h0c-0.1-7.1-6-12.8-13.4-12.8c-7.3,0-13.3,5.7-13.4,12.8h0v10.4h0c0.1,0.5,0.2,0.9,0.4,1.4c0,0.1-0.1,0.1-0.1,0.2
	c0,0.1-1.4,5.5-4.4,6.8c-0.2,0.1-0.4,0.3-0.4,0.5c0,0.2,0,0.5,0.2,0.7c0.1,0.1,3.4,3.3,10.2,3.3c0.1,0,0.2,0,0.3,0v2.4h-0.5
	c-9.6,0.1-17.2,8.5-17.2,18.9v1c0,0.4,0.3,0.7,0.7,0.7h28.3h0.5L32,64.9c-0.1,0.8,0.2,1.6,0.8,2.2c0.5,0.6,1.3,0.9,2.1,0.9h62.5
	c0.8,0,1.6-0.3,2.1-0.9c0.1-0.1,0.1-0.2,0.2-0.2c0.4-0.5,0.6-1.2,0.6-1.8c0,0,0-0.1,0-0.2l-0.1-2.4h0.4h28.5c0.4,0,0.7-0.3,0.7-0.7
	v-1C129.6,50.3,121.9,41.9,112.6,41.9z M120.7,35.8c-1.3,0.9-4.2,2.3-8.7,2.2v-2.6c2.1-1.3,3.8-3.1,4.9-5.3
	C117.6,31.8,118.8,34.4,120.7,35.8z M92.9,17.6c0-0.4,0-1,0-1.3c0,0,0,0,0,0c0,0,0-0.1,0-0.1c0.1-6.2,5.5-11.3,12-11.3
	c6.5,0,11.7,5,11.8,11.3c0,0,0,0.1,0,0.1c0,0,0,0.1,0,0.1c0,0.2,0,0.6,0,1c-12-1-14-5.9-15.2-8.9L101.3,8c-0.1-0.3-0.4-0.5-0.8-0.5
	c-0.3,0-0.6,0.3-0.7,0.6c-1,6.8-4.9,9.7-6.9,10.8L92.9,17.6L92.9,17.6z M97.8,38c-4.5,0.1-7.4-1.4-8.7-2.2c1.9-1.4,3.1-3.8,3.7-5.5
	c1.1,2.1,2.9,3.9,5,5.2V38z M93.1,26.5L93,22.3l0-1.7c1.8-0.8,6.1-3.4,7.9-9.8c1.5,3.1,4.9,7.2,15.9,8.1l0,3.5l0,4.2h0
	c-0.9,4.1-3.9,7.6-8,8.9c-4.1,1.1-7.6,0-7.6,0C97,34.1,94,30.6,93.1,26.5z M110.6,36.2v6l-0.3,0.2c-3.3,2-7.4,2-10.7,0l-0.3-0.2
	v-5.9c0.4,0.2,0.8,0.4,1.3,0.5c0.1,0,1.8,0.5,4.2,0.5c1.3,0,2.7-0.1,4.3-0.6C109.6,36.6,110.1,36.4,110.6,36.2z M92.8,44.2
	c0,0,0,0.1,0,0.1C92.8,44.3,92.7,44.3,92.8,44.2l-0.2,0.1C92.7,44.2,92.7,44.2,92.8,44.2z M77.1,44.9l0.3-4.3l10.7,3.8v9.4H66.9v-2
	l8.5-4.3C76.4,47,77,46,77.1,44.9z M74.5,39.6l1.4,0.5l-0.4,4.7c0,0.6-0.4,1.1-0.9,1.3l-6.4,3.2L74.5,39.6z M55,16.1
	c0.1-6.2,5-11.3,11.2-11.3c4.8,0,9,3.2,10.5,7.6C75.8,13,74,14,71.9,13.2c-1.3-0.5-2.7-0.7-4-0.7c0,0,0.1,0,0.1,0l3.4-1.1l-3.6-0.3
	c-3.2-0.3-5.2,0.1-8.4,2.8c-1.8,1.5-3.4,2.2-4.3,2.5c0,0,0,0,0,0c0,0,0,0,0,0C55,16.2,55,16.2,55,16.1z M58.1,32.5c0,0,0,0-0.1-0.1
	c-1.6-1.8-2.8-3.9-3-5.9l0-4.2l0-4.4c1-0.3,3-0.9,5.3-2.9c1.7-1.5,3-2.1,4.3-2.4c-0.1,0.2-0.3,0.4-0.5,0.7l-0.8,1.5l1.7-0.4
	c2.1-0.5,4.3-0.4,6.3,0.3c2.4,0.8,4.5,0,5.7-0.7c0.1,0.7,0.2,1.4,0.2,2.2c0,0,0,0.1,0,0.1c0,0,0,0.1,0,0.1c0,0.3,0,0.9,0,1.3l0,4.6
	l-0.1,4.2c-0.3,2-1.4,4.2-3,6l-0.1,0.1c-0.5,0.6-1.1,1.1-1.7,1.5l-0.1,0.1c-0.1,0-0.1,0.1-0.2,0.1l-0.5,0.3c-0.8,0.5-1.6,0.8-2.3,1
	h-0.1c-1.3,0.3-2.2,0.5-3.1,0.5c-0.9,0-1.8-0.2-3.1-0.5c-0.8-0.2-1.6-0.5-2.4-1l-0.2-0.1c-0.1,0-0.1-0.1-0.2-0.1l-0.1-0.1
	C59.4,33.8,58.7,33.2,58.1,32.5z M71.2,39.1l0.1,0.2l-0.2,0.1c-1.6,0.6-3.3,0.9-5,0.9c-1.7,0-3.4-0.3-4.9-0.9L61,39.3l0.1-0.2
	c0-0.1,0-0.2,0-0.4v-2.1l0.3,0.1c0.4,0.2,0.8,0.3,1.2,0.4c2.8,0.7,4.1,0.7,6.9,0h0.1c0.4-0.1,0.8-0.2,1.2-0.4l0.3-0.1v2.1
	C71.2,38.8,71.2,38.9,71.2,39.1z M57.7,39.6l6.2,9.8l-6.4-3.2c-0.5-0.3-0.8-0.8-0.9-1.3l-0.4-4.7L57.7,39.6z M44,44.4l10.7-3.8
	l0.3,4.3c0.1,1.1,0.7,2.1,1.7,2.6l8.5,4.3v2H44V44.4z M39.6,44.1c0.1,0,0.3,0.1,0.4,0.2l-0.3,0.1c0,0-0.1,0-0.1,0
	C39.6,44.3,39.6,44.1,39.6,44.1z M43,35.8c-1.3,0.9-4.2,2.3-8.7,2.2v-2.5c2.1-1.3,3.8-3.1,5-5.2C39.9,32,41.1,34.4,43,35.8z
	 M15.4,17.6L15.4,17.6c0-0.4,0-1,0-1.3c0,0,0,0,0,0c0,0,0-0.1,0-0.1c0.1-6.2,5.5-11.3,12-11.3c6.5,0,11.7,5,11.8,11.3
	c0,0,0,0.1,0,0.1c0,0,0,0.1,0,0.1c0,0.2,0,0.6,0,1c-12-1-14-5.9-15.2-8.9L23.9,8c-0.1-0.3-0.5-0.5-0.8-0.5c-0.3,0-0.6,0.3-0.7,0.6
	c-1.1,6.8-5,9.7-7,10.8L15.4,17.6z M20,38c-4.5,0.1-7.4-1.4-8.7-2.2c2.1-1.4,3.2-4,3.8-5.7c1.1,2.2,2.8,4,4.9,5.3V38z M15.4,26.5
	l0-4.2l0-1.6c1.7-0.8,6.2-3.3,8-9.9c1.5,3.1,4.9,7.2,15.9,8.1l0,3.4l-0.1,4.2h0c-0.9,4.1-3.9,7.6-8,8.9c0,0-3.6,1.1-7.6,0
	C19.3,34.1,16.3,30.6,15.4,26.5z M32.8,36.4v5.9l-0.3,0.2c-3.3,2-7.4,2-10.7,0l-0.3-0.2v-6c0.5,0.1,1,0.3,1.5,0.5
	c1.6,0.4,3,0.6,4.3,0.6c2.4,0,4.1-0.5,4.2-0.5C31.9,36.8,32.4,36.6,32.8,36.4z M9.8,60.9H4.1v-0.2c0-7.9,4.8-14.6,11.3-16.7
	c0.7,6.4-1.3,9.2-3.2,10.9c-2.3,2.1-2.4,5.2-2.4,5.8V60.9z M26.5,60.9H11.2v-0.2c0-1.4,0.5-3.4,1.9-4.7c2.2-2,4.5-5.2,3.7-12.4
	c0.9-0.2,1.8-0.3,2.8-0.3h0.3c0,3.2,2,7.5,5.1,9.1c0.9,0.4,1.5,1.5,1.5,2.6V60.9z M27.2,52.5c-0.4-0.6-0.9-1.1-1.6-1.4
	c-2.2-1.1-4.1-4.4-4.3-7.3c1.8,1,3.8,1.5,5.8,1.5c2.1,0,4.1-0.5,6-1.6c-0.1,2.7-1.8,6.2-4.3,7.4C28.1,51.4,27.6,51.9,27.2,52.5z
	 M32.6,53.7l-0.4,7.2h-0.6H28V55c0-1.1,0.6-2.1,1.5-2.6c3.2-1.5,5.2-5.9,5.2-9.1h0.1c1.1,0,2.2,0.1,3.3,0.4c-0.1,0.5-0.1,1-0.1,1.5
	v0c0,0,0,0,0,0c0,0,0,0,0,0C34.9,46.9,32.9,50.1,32.6,53.7z M42.5,66.4h-7.6c-0.4,0-0.7-0.2-1-0.4c-0.3-0.3-0.4-0.6-0.4-1l0.6-11.1
	c0.2-3.6,2.6-6.8,6-8l2.4-0.8V66.4z M65.3,66.4H44V60h21.3V66.4z M65.3,58.5H44v-3.1h21.3V58.5z M60.2,40.7l0.7,0.2
	c3.4,1.2,7,1.2,10.4,0l0.7-0.2l-5.9,9.2L60.2,40.7z M88.2,66.4H66.9V60h21.3V66.4z M88.2,58.5H66.9v-3.1h21.3V58.5z M98.7,65.4
	c-0.1,0.2-0.2,0.4-0.3,0.6c-0.3,0.3-0.6,0.4-1,0.4h-7.6V45l-0.1,0h0.1v0l2.3,0.8c0.1,0,0.2,0.1,0.3,0.1c0.4,0.2,0.9,0.4,1.3,0.7
	c0.5,0.3,1,0.7,1.5,1.1c1.7,1.6,2.7,3.7,2.9,6.1L98.7,65C98.7,65.1,98.7,65.3,98.7,65.4z M104.4,61h-3.9h-0.4l-0.4-7.3
	c-0.2-3.3-2-6.3-4.7-8.2c-0.2-0.1-0.4-0.2-0.6-0.4c0-0.4-0.1-0.9-0.1-1.3c1.1-0.3,2.1-0.4,3.3-0.4h0.1c0,3.2,2,7.5,5.2,9.1
	c0.9,0.4,1.5,1.5,1.5,2.6V61z M104.9,52.5c-0.4-0.6-0.9-1.1-1.6-1.4c-2.5-1.2-4.2-4.7-4.3-7.4c1.8,1.1,3.9,1.6,6,1.6
	c2,0,4-0.5,5.8-1.5c-0.2,2.9-2.1,6.2-4.3,7.3C105.8,51.4,105.3,51.9,104.9,52.5z M120.9,60.9h-15.3V55c0-1.1,0.6-2.1,1.5-2.6
	c3.2-1.5,5.1-5.9,5.1-9.1h0.3c0.9,0,1.9,0.1,2.8,0.3c-0.9,7.2,1.5,10.4,3.7,12.4c1.4,1.3,1.9,3.4,1.9,4.7V60.9z M128.1,60.9h-5.7
	v-0.2c0-0.6-0.1-3.7-2.4-5.8c-1.9-1.7-3.9-4.5-3.2-10.9c6.5,2.1,11.3,8.8,11.3,16.7V60.9z"/>
<path d="M64.4,21.6c-1.2-0.9-2.6-1.8-4.2-1.7c-1.1,0.1-2.3,0.7-3.1,2c0.5-0.4,1.4-0.7,2.4-0.8c-0.1,0.2-0.2,0.4-0.2,0.6
	c0,1.5,2.8,1.5,2.8,0c0-0.2-0.1-0.3-0.2-0.5C62.8,21.2,63.6,21.4,64.4,21.6z"/>
<path d="M74.6,22.1c-1.2-0.9-2.6-1.8-4.2-1.7c-1.1,0.1-2.3,0.7-3.1,2c0.5-0.4,1.4-0.7,2.4-0.8c-0.1,0.2-0.2,0.4-0.2,0.6
	c0,1.5,2.8,1.5,2.8,0c0-0.2-0.1-0.3-0.2-0.5C73,21.7,73.8,21.9,74.6,22.1z"/>
<path d="M62.8,30.5c-1-0.3-2-0.8-3-1.3c2.5,4.3,9.7,4.3,12.1,0C70,30.3,66.2,31.5,62.8,30.5z"/>
<path d="M25.7,22.1c-1.2-0.9-2.6-1.8-4.2-1.7c-1.1,0.1-2.3,0.7-3.1,2c0.5-0.4,1.4-0.7,2.4-0.8c-0.1,0.2-0.2,0.4-0.2,0.6
	c0,1.5,2.8,1.5,2.8,0c0-0.2-0.1-0.3-0.2-0.5C24.1,21.7,24.9,21.9,25.7,22.1z"/>
<path d="M35.9,22.5c-1.2-0.9-2.6-1.8-4.2-1.7c-1.1,0.1-2.3,0.7-3.1,2c0.5-0.4,1.4-0.7,2.4-0.8c-0.1,0.2-0.2,0.4-0.2,0.6
	c0,1.5,2.8,1.5,2.8,0c0-0.2-0.1-0.3-0.2-0.5C34.3,22.2,35.1,22.3,35.9,22.5z"/>
<path d="M24.1,31c-1-0.3-2-0.8-3-1.3c2.5,4.3,9.7,4.3,12.1,0C31.3,30.8,27.4,32,24.1,31z"/>
<path d="M103.4,22.1c-1.2-0.9-2.6-1.8-4.2-1.7c-1.1,0.1-2.3,0.7-3.1,2c0.5-0.4,1.4-0.7,2.4-0.8c-0.1,0.2-0.2,0.4-0.2,0.6
	c0,1.5,2.8,1.5,2.8,0c0-0.2-0.1-0.3-0.2-0.5C101.8,21.7,102.6,21.9,103.4,22.1z"/>
<path d="M113.6,22.5c-1.2-0.9-2.6-1.8-4.2-1.7c-1.1,0.1-2.3,0.7-3.1,2c0.5-0.4,1.4-0.7,2.4-0.8c-0.1,0.2-0.2,0.4-0.2,0.6
	c0,1.5,2.8,1.5,2.8,0c0-0.2-0.1-0.3-0.2-0.5C112,22.2,112.8,22.3,113.6,22.5z"/>
<path d="M101.8,31c-1-0.3-2-0.8-3-1.3c2.5,4.3,9.7,4.3,12.1,0C109,30.8,105.1,32,101.8,31z"/>
</svg>
