<?xml version="1.0" encoding="utf-8"?>
<!-- Generator: Adobe Illustrator 22.0.0, SVG Export Plug-In . SVG Version: 6.00 Build 0)  -->
<svg version="1.1" id="Layer_1" xmlns="http://www.w3.org/2000/svg" xmlns:xlink="http://www.w3.org/1999/xlink" x="0px" y="0px"
	 viewBox="0 0 126.3 126.7" style="enable-background:new 0 0 126.3 126.7;" xml:space="preserve">
<style type="text/css">
	.st0{display:none;}
	.st1{display:inline;}
	.st2{fill:none;stroke:#000000;stroke-width:2;stroke-linejoin:round;stroke-miterlimit:10;}
	.st3{display:inline;fill:none;stroke:#000000;stroke-width:2;stroke-linecap:round;stroke-linejoin:round;stroke-miterlimit:10;}
	.st4{fill:none;stroke:#000000;stroke-width:2;stroke-linecap:round;stroke-linejoin:round;stroke-miterlimit:10;}
	.st5{fill:none;}
</style>
<g class="st0">
	<g class="st1">
		<polyline class="st2" points="73,71.7 58,71.7 58,34.7 70.1,34.7 85,48.5 85,61.7 		"/>
		<line class="st2" x1="85" y1="48.7" x2="58" y2="48.7"/>
		<line class="st2" x1="63" y1="54.7" x2="67" y2="54.7"/>
		<path class="st2" d="M90.1,70.7c0,3.8-3.1,6.9-6.9,6.9s-6.9-3.1-6.9-6.9"/>
		<path class="st2" d="M83.2,61.3c-5.7,0-10.4,3.4-10.4,10.4h20.7C93.6,64.7,89,61.3,83.2,61.3z"/>
		<polyline class="st2" points="17,71.7 6,71.7 6,65.7 19,65.7 		"/>
		<polyline class="st2" points="29,65.7 58,65.7 58,71.7 31,71.7 		"/>
		<polyline class="st2" points="33,65.7 33,50.7 15,50.7 15,34.7 70.1,34.7 60.8,26.7 10.6,26.7 6,32.7 6,65.7 		"/>
		<line class="st2" x1="58.7" y1="49.1" x2="54.5" y2="44.9"/>
		<rect x="33" y="34.7" class="st2" width="4" height="31"/>
		<g>
			<circle class="st2" cx="24" cy="70.8" r="7.1"/>
			<circle cx="24" cy="70.8" r="1.8"/>
		</g>
	</g>
</g>
<g class="st0">
	<path class="st1" d="M36.8,43.1c0.3-0.6,1.2-0.9,2-0.5c0.9,0.3,1.3,1.1,1.1,1.8c-0.3,0.6-0.8-0.1-1.6-0.4
		C37.4,43.6,36.5,43.7,36.8,43.1z"/>
	<path class="st3" d="M17.2,53.4c0,0,0.8-5.9-5.2-5.9s-6.1,12.8,2.6,14.9"/>
	<path class="st3" d="M8.1,66.4L8.1,66.4c0,0,5.5,3.4,18.4,6.9s16.2-1.6,16.2-3.4c0-1.7,0.5-2.9,0.5-2.9c2.6-1.4,0.7-3.2,0.7-3.2
		c3.5-1.1,2.3-4.4,2.3-4.4c2.7-2.7,2-4.8-0.5-6c-2.2-1.1-1.8-5.8-1.7-6.7c0,0,0-0.1,0-0.1c0,0,0,0,0,0l0,0c0.1-0.9,0.1-1.8,0.1-2.8
		c0-2.4-0.3-4.8-1-7"/>
	<path class="st3" d="M5.8,65.1c0,0,0.9,5.3,0.2,10.2"/>
	<path class="st3" d="M25,72.9c0,0-1.4,3.9-1.4,8.1"/>
	<polyline class="st3" points="31.5,90.6 23.6,81 6,75.2 5,76.7 	"/>
	<line class="st3" x1="23.6" y1="81" x2="19.7" y2="86"/>
	<path class="st3" d="M39,51.7c0-1.1-0.9-2-2-2s-2,0.9-2,2"/>
	<g class="st1">
		<path class="st4" d="M17.2,70.4c1.6,0.6,3.5,1.2,5.6,1.9L17.2,70.4z"/>
		<path class="st4" d="M17.2,70.4C17.1,70.4,17.1,70.3,17.2,70.4L17.2,70.4L17.2,70.4z"/>
		<path class="st4" d="M5,64.6c1,0.7,2,1.3,3.1,1.8c0,0,2.8,1.7,9,4l-2.4-7.9c-8.7-2.1-8.6-14.9-2.6-14.9c6,0,5.2,5.9,5.2,5.9
			c6.4-2.3,7.9-13.5,7.9-13.5S47,41.7,48,28.5c0,0.1-0.5,0.2-0.6,0.2c-0.5,0.2-1,0.3-1.5,0.4c-1.5,0.3-3,0.4-4.5,0.1
			c-1-0.2-1.9-0.5-2.7-1.2c-0.7-0.6-1.3-1.4-2-2.1c-1.4-1.4-3-2.6-4.7-3.6c-1.7-1-3.5-1.9-5.5-2.5c-2-0.6-4-1-6.1-1.1
			c-0.5,0-1,0-1.4,0C13.9,18.7,9,20.3,5,23"/>
	</g>
	<polyline class="st3" points="35.7,95.7 31.5,90.6 5,80.3 	"/>
	<g class="st1">
		<path d="M63.2,43.1c-0.3-0.6-1.2-0.9-2-0.5c-0.9,0.3-1.3,1.1-1.1,1.8c0.3,0.6,0.8-0.1,1.6-0.4C62.6,43.6,63.5,43.7,63.2,43.1z"/>
		<path class="st4" d="M82.8,53.4c0,0-0.8-5.9,5.2-5.9s6.1,12.8-2.6,14.9"/>
		<path class="st4" d="M56.7,36.8c-0.7,2.2-1,4.6-1,7c0,0.9,0.1,1.9,0.1,2.8l0,0c0,0,0,0,0,0c0,0,0,0.1,0,0.1
			c0.1,0.9,0.5,5.6-1.7,6.7c-2.4,1.2-3.1,3.3-0.5,6c0,0-1.3,3.4,2.3,4.4c0,0-1.9,1.8,0.7,3.2c0,0,0.5,1.2,0.5,2.9
			c0,1.7,3.4,6.9,16.2,3.4c3.8-1,6.9-2,9.4-3"/>
		<path class="st4" d="M75,72.9c0,0,3.1,8.5,1,13.8"/>
		<line class="st4" x1="77" y1="82.7" x2="90" y2="76.7"/>
		<path class="st4" d="M61,51.7c0-1.1,0.9-2,2-2c1.1,0,2,0.9,2,2l2-1"/>
		<path class="st4" d="M95,79c-23.4,7.6-27.8,13.2-27.8,16.7"/>
		<path class="st4" d="M95,23.1c-4-2.8-8.9-4.4-14.1-4.4c-6.4,0-17,2.7-17,2.7c-2.4,0.1-5.4-0.1-7.7-0.1c-2.6,0-4.6,6.9-3.6,9.9
			c1.3,4.1,3.3,5.3,6.4,6.9c4.7,2.4,10.5,2.8,15.7,2c0.1,0,0.2,0,0.3,0c0,0,1.5,11.3,7.9,13.5c0,0-0.8-5.9,5.2-5.9
			c6,0,6.1,12.8-2.6,14.9l-2.4,7.9l-0.1,0c2.5,4.3,7,7.2,12.2,7.4"/>
	</g>
	<path class="st3" d="M54,10c0-1.1-0.9-2.4-2-2.4l0,0l0,0c-1,0-1.9,1-2,2c-0.1-1-1-2-2-2l0,0l0,0c-1.1,0-2,1.2-2,2.4l0,0
		c0,0-0.1,2.6,4,5.6l0,0l0,0l0,0l0,0C54.1,12.7,54,10,54,10L54,10z"/>
</g>
<path class="st5" d="M100.8,105.7c0,0.6-0.1,1.2-0.2,1.7c2-1,4.3-2,6.8-3.1c-0.1-0.5-0.2-1-0.3-1.5L100.8,105.7z"/>
<path class="st5" d="M105.9,90c-2.2,0.8-4.5,1.5-7,2.2c0.6,2.1,1.7,6.2,1.9,10.4l5.7-2.6C105.8,95.7,105.7,92.5,105.9,90z"/>
<path class="st5" d="M66,4.4c-0.6,0-1.3,0.7-1.4,1.5c-0.1,0.7-0.7,1.2-1.3,1.2S62,6.6,62,5.9c-0.1-0.8-0.7-1.5-1.4-1.5
	c-0.6,0-1.4,1-1.4,1.8c0,0,0.1,2.7,4.1,5.9c4-3.2,4.1-5.9,4.1-5.9C67.4,5.3,66.7,4.4,66,4.4z"/>
<path class="st5" d="M27.7,92.2c-0.6-0.2-1.1-0.3-1.6-0.5c0,0,0,0,0,0c-0.1,0-0.2-0.1-0.3-0.1c-12.3-3.8-18.4-7.1-19.7-7.8
	c0,0,0,0-0.1,0c0,0-0.1,0-0.1-0.1c-0.1,0-0.1-0.1-0.1-0.1c-0.2-0.1-0.4-0.2-0.7-0.4c0.3,2.5,0.5,6.4,0.1,10.2l21,6.9
	C26.4,97,27.2,93.9,27.7,92.2z"/>
<polygon class="st5" points="24.5,108.5 33.9,112.2 27.6,104.5 "/>
<path class="st5" d="M57,66.2c-3.6-1.7-3.4-7.9-3.1-10.5c0,0,0-0.1,0-0.2c0,0,0-0.1,0-0.1c0.1-1.2,0.2-2.3,0.2-3.5
	c0-2.7-0.4-5.4-1-8c-7.9,4.3-18.8,4.2-22.4,4.1C30,52,27.2,63.5,19.4,66.3c0,0-0.1,0-0.1,0c0,0-0.1,0-0.1,0c-0.1,0-0.3,0-0.4,0
	c0,0,0,0-0.1,0c0,0,0,0,0,0c-0.2,0-0.3-0.1-0.4-0.2c0,0-0.1,0-0.1-0.1c0,0-0.1,0-0.1-0.1c-0.1-0.1-0.1-0.1-0.2-0.2c0,0,0,0,0,0
	c-0.1-0.1-0.2-0.3-0.2-0.4c0,0,0-0.1,0-0.1c0-0.2-0.1-0.3,0-0.5c0,0,0,0,0,0c0,0,0.1-0.8,0-1.7c0,0,0,0,0,0c-0.1-0.5-0.2-1-0.4-1.5
	c0-0.1-0.1-0.2-0.1-0.3c-0.1-0.2-0.1-0.3-0.2-0.5c-0.1-0.3-0.3-0.5-0.5-0.7c-0.9-1.1-2.4-1.6-4.4-1.6c-2.7,0-4,2.7-4.3,5.2
	C7,68.4,9.7,74.4,15.7,75.8c0.2,0,0.3,0.1,0.4,0.2c0,0,0.1,0,0.1,0.1c0.1,0.1,0.2,0.2,0.3,0.3c0,0,0,0,0,0c0.1,0.1,0.1,0.2,0.1,0.3
	l3.1,10.1l6.8,2.3c1.6,0.5,3.3,1,5.2,1.5c11.3,3.1,16.4,1,18.4-0.6c1.5-1.1,1.8-2.3,1.8-2.7c0-2.6,0.8-4.4,0.9-4.5
	c0.1-0.3,0.3-0.5,0.6-0.6c0.7-0.4,1.1-0.7,1.2-1.1c0.1-0.4-0.3-0.9-0.5-1.1c-0.3-0.3-0.5-0.8-0.4-1.3c0.1-0.5,0.5-0.8,0.9-1
	c1.1-0.3,1.8-0.9,2.1-1.6c0.6-1.2,0.1-2.6,0.1-2.7c-0.2-0.5-0.1-1.1,0.3-1.4c1.4-1.4,2.1-2.7,1.9-3.7C59,67.4,57.9,66.7,57,66.2z
	 M45.4,51c0.3-0.9,1.6-1.2,2.7-0.7c1.2,0.5,1.8,1.5,1.5,2.4c-0.3,0.9-1.1-0.1-2.2-0.6C46.2,51.7,45,51.9,45.4,51z M48.4,64
	c-0.7,0-1.4-0.6-1.4-1.4c0-0.7-0.6-1.4-1.4-1.4c-0.7,0-1.4,0.6-1.4,1.4c0,0.7-0.6,1.4-1.4,1.4c-0.7,0-1.4-0.6-1.4-1.4
	c0-2.2,1.8-4.1,4.1-4.1c2.2,0,4.1,1.8,4.1,4.1C49.7,63.4,49.1,64,48.4,64z"/>
<path class="st5" d="M107.1,74.8c-0.6-5.3-2.9-8.8-5.5-12.5c-2.6-3.9-5.4-7.9-6-14c-7.7,1-15.1-0.1-20.9-3c-0.5-0.3-1-0.5-1.5-0.8
	c-0.6,2.4-0.9,5-0.9,7.5c0,1.2,0.1,2.4,0.2,3.5c0,0,0,0.1,0,0.1c0.3,2.7,0.6,8.8-3.1,10.6c-0.9,0.4-2,1.1-2.1,2.2
	c-0.2,1,0.5,2.3,1.9,3.7c0.4,0.4,0.5,0.9,0.3,1.4c0,0-0.5,1.5,0.1,2.7c0.3,0.7,1.1,1.2,2.1,1.6c0.5,0.1,0.8,0.5,0.9,1
	c0.1,0.5,0,1-0.4,1.3c-0.2,0.2-0.5,0.7-0.5,1c0.1,0.3,0.5,0.7,1.2,1.1c0.3,0.1,0.5,0.4,0.6,0.6c0,0.1,0.9,1.9,0.9,4.5
	c0,0.3,0.3,1.5,1.8,2.7c2,1.5,7.1,3.7,18.4,0.6c4.1-1.1,7.9-2.3,11.5-3.6c0.1-0.6,0.2-1.2,0.3-1.8C107.1,82.3,107.6,79.6,107.1,74.8
	z M78.5,50.3c1.2-0.5,2.4-0.2,2.7,0.7c0.3,0.9-0.8,0.7-2,1.1c-1.2,0.5-1.9,1.4-2.2,0.6C76.6,51.9,77.3,50.8,78.5,50.3z M86.9,62.5
	l-2.7,1.4C84,63.9,83.8,64,83.6,64c-0.2,0-0.5-0.1-0.7-0.2c-0.4-0.2-0.6-0.7-0.6-1.2c0-0.7-0.6-1.4-1.4-1.4s-1.4,0.6-1.4,1.4
	c0,0.7-0.6,1.4-1.4,1.4c-0.7,0-1.4-0.6-1.4-1.4c0-2.2,1.8-4.1,4.1-4.1c1.5,0,2.9,0.9,3.6,2.1l1.2-0.6c0.7-0.3,1.5-0.1,1.8,0.6
	C87.9,61.3,87.6,62.1,86.9,62.5z"/>
<path class="st5" d="M70,56.1C70,56.1,70,56.1,70,56.1c0,0.3,0.2,0.5,0.4,0.7C70.2,56.6,70,56.4,70,56.1z"/>
<path d="M47.4,52.2c1.2,0.5,1.9,1.4,2.2,0.6c0.3-0.9-0.3-1.9-1.5-2.4c-1.2-0.5-2.4-0.2-2.7,0.7C45,51.9,46.2,51.7,47.4,52.2z"/>
<path d="M61.8,68c-0.2-1.2-1-2.9-3.6-4.2c-1.5-0.7-1.9-4.4-1.6-7.7c0,0,0-0.1,0-0.1c0.1-1.3,0.2-2.6,0.2-3.9c0-3.2-0.4-6.4-1.3-9.5
	c0.4-0.3,0.8-0.5,1.1-0.8c3.2-2.7,4.9-6.2,5.2-10.4c0-0.7-0.4-1.2-1-1.4c-0.4-0.1-0.8,0-1.1,0.2c-0.1,0-0.2,0-0.2,0.1
	c-0.1,0-0.2,0-0.2,0.1c-0.6,0.2-1.3,0.4-1.9,0.5c-2.1,0.4-3.9,0.5-5.5,0.2c-1.3-0.3-2.3-0.7-3-1.3c-0.5-0.4-1-1-1.5-1.5
	c-0.4-0.4-0.8-0.9-1.2-1.3c-2-2-4.2-3.7-6.6-5.1c-2.4-1.5-5-2.6-7.7-3.5c-2.8-0.9-5.6-1.4-8.5-1.5C15.7,16.2,8,18.3,1.6,22.7
	C1,23.1,0.8,24,1.2,24.6c0.4,0.6,1.3,0.8,1.9,0.4c5.9-4,13-6,20.2-5.6c2.7,0.1,5.3,0.6,7.9,1.4c2.5,0.8,4.9,1.8,7.1,3.2
	c2.2,1.3,4.2,2.9,6.1,4.7c0.4,0.4,0.7,0.8,1.1,1.1c0.5,0.6,1.1,1.2,1.7,1.8c1.1,0.9,2.5,1.6,4.3,1.9c1.9,0.4,4.2,0.3,6.6-0.2
	c0.3-0.1,0.6-0.1,0.9-0.2c-0.6,2.5-1.9,4.7-4,6.5c-8.2,7-25,5.8-25.2,5.7c-0.7,0-1.4,0.5-1.4,1.2c0,0.1-1.7,12.2-8,16.3c0,0,0,0,0,0
	c0-0.3-0.1-0.7-0.2-1c0,0,0-0.1,0-0.1c-0.1-0.4-0.2-0.7-0.3-1.1c0,0,0-0.1,0-0.1c-0.1-0.4-0.3-0.8-0.5-1.1c0,0,0,0,0,0
	c-0.2-0.4-0.5-0.8-0.8-1.1c-1.5-1.7-3.6-2.5-6.5-2.5c-3.7,0-6.5,3-7,7.6c0,0.4-0.1,0.7-0.1,1.1c0,0.1,0,0.3,0,0.4c0,0.2,0,0.5,0,0.7
	c0,0.2,0,0.3,0,0.5c0,0.2,0,0.4,0.1,0.7C4.9,66.9,5,67,5,67.2c0,0.2,0.1,0.4,0.1,0.6c0,0.2,0.1,0.4,0.1,0.5c0.1,0.2,0.1,0.4,0.2,0.6
	c0.1,0.2,0.1,0.4,0.2,0.5c0.1,0.2,0.1,0.4,0.2,0.6c0.1,0.2,0.1,0.4,0.2,0.5c0.1,0.2,0.2,0.4,0.3,0.6c0.1,0.2,0.2,0.3,0.3,0.5
	c0.1,0.2,0.2,0.4,0.3,0.5c0.1,0.2,0.2,0.3,0.3,0.5c0.1,0.2,0.2,0.4,0.3,0.5c0.1,0.2,0.2,0.3,0.4,0.5c0.1,0.2,0.3,0.3,0.4,0.5
	c0.1,0.2,0.3,0.3,0.4,0.4c0.1,0.2,0.3,0.3,0.4,0.5c0.1,0.1,0.3,0.3,0.4,0.4c0.2,0.1,0.3,0.3,0.5,0.4c0.2,0.1,0.3,0.2,0.5,0.4
	c0.2,0.1,0.4,0.3,0.5,0.4c0.2,0.1,0.4,0.2,0.5,0.3c0.2,0.1,0.4,0.2,0.6,0.3c0.2,0.1,0.4,0.2,0.6,0.3c0.2,0.1,0.4,0.2,0.6,0.3
	c0.2,0.1,0.4,0.2,0.6,0.2c0.1,0,0.2,0.1,0.3,0.1l2.3,7.4c-0.6-0.2-1.2-0.5-1.7-0.7c-0.1,0-0.1-0.1-0.2-0.1c-0.5-0.2-1-0.4-1.4-0.6
	c-0.1,0-0.1-0.1-0.2-0.1c-0.4-0.2-0.7-0.3-1.1-0.5c-0.1,0-0.2-0.1-0.3-0.1c-0.3-0.2-0.7-0.3-1-0.4c-0.1-0.1-0.3-0.1-0.4-0.2
	c-0.2-0.1-0.3-0.2-0.5-0.2c-0.2-0.1-0.5-0.2-0.7-0.3c-0.1,0-0.2-0.1-0.2-0.1c-0.1-0.1-0.3-0.1-0.4-0.2c0,0-0.1,0-0.1-0.1
	c-0.2-0.1-0.4-0.2-0.6-0.3c-0.1,0-0.1-0.1-0.2-0.1c0,0-0.1,0-0.1-0.1c-0.2-0.1-0.3-0.2-0.3-0.2c0,0,0,0,0,0c0,0-0.1,0-0.1-0.1
	c-1.4-0.7-2.7-1.4-4-2.3c-0.6-0.4-1.5-0.3-1.9,0.4C0.8,80,1,80.8,1.6,81.3c0.2,0.1,0.4,0.2,0.6,0.4c0.2,1.7,0.9,7.2,0.2,12.3
	l-1.2,1.7c-0.4,0.6-0.3,1.5,0.4,1.9C2.2,98,3,97.9,3.5,97.2l0.8-1.2l21,6.9l-3.4,4.5l-19-7.4c-0.7-0.3-1.5,0.1-1.8,0.8
	c-0.3,0.7,0.1,1.5,0.8,1.8l35.5,13.7l5.5,6.7c0.3,0.3,0.7,0.5,1.1,0.5c0.3,0,0.6-0.1,0.9-0.3c0.6-0.5,0.7-1.3,0.2-1.9l-5.7-7
	c0,0,0,0,0,0c0,0,0,0,0,0l-10.4-12.6c0.1-3.6,0.9-7.1,1.4-8.9c0.3,0.1,0.5,0.1,0.8,0.2c4.4,1.2,8.1,1.7,11,1.7
	c4.9,0,7.9-1.3,9.8-2.7c2.1-1.6,2.9-3.6,2.9-4.8c0-1.4,0.3-2.5,0.5-3c1.2-0.8,2-1.7,2.1-2.8c0.1-0.7,0-1.3-0.2-1.8
	c1-0.6,1.7-1.3,2.2-2.3c0.7-1.5,0.6-3,0.4-4C61.4,71.6,62.1,69.8,61.8,68z M5.2,93.5c0.4-3.8,0.2-7.7-0.1-10.2
	c0.2,0.1,0.4,0.3,0.7,0.4c0,0,0,0,0.1,0.1c0,0,0.1,0,0.1,0.1c0,0,0,0,0.1,0c1.3,0.7,7.4,4,19.7,7.8c0.1,0,0.2,0.1,0.3,0.1
	c0,0,0,0,0,0c0.5,0.2,1.1,0.3,1.6,0.5c-0.5,1.7-1.2,4.8-1.5,8.2L5.2,93.5z M33.9,112.2l-9.4-3.6l3.1-4L33.9,112.2z M57.3,72.2
	c-0.4,0.4-0.5,0.9-0.3,1.4c0,0,0.5,1.5-0.1,2.7c-0.3,0.7-1.1,1.2-2.1,1.6c-0.5,0.1-0.8,0.5-0.9,1c-0.1,0.5,0,1,0.4,1.3
	c0.2,0.2,0.5,0.7,0.5,1.1c-0.1,0.3-0.5,0.7-1.2,1.1c-0.3,0.1-0.5,0.4-0.6,0.6c0,0.1-0.9,1.9-0.9,4.5c0,0.3-0.3,1.5-1.8,2.7
	c-2,1.5-7.1,3.7-18.4,0.6c-1.8-0.5-3.6-1-5.2-1.5l-6.8-2.3l-3.1-10.1c0-0.1-0.1-0.2-0.1-0.3c0,0,0,0,0,0c-0.1-0.1-0.2-0.2-0.3-0.3
	c0,0-0.1,0-0.1-0.1c-0.1-0.1-0.3-0.2-0.4-0.2C9.7,74.4,7,68.4,7.6,63.6c0.3-2.5,1.6-5.2,4.3-5.2c2,0,3.5,0.5,4.4,1.6
	c0.2,0.2,0.4,0.5,0.5,0.7c0.1,0.2,0.2,0.3,0.2,0.5c0,0.1,0.1,0.2,0.1,0.3c0.2,0.5,0.3,1,0.4,1.5c0,0,0,0,0,0c0.1,1,0,1.7,0,1.7
	c0,0,0,0,0,0c0,0.2,0,0.3,0,0.5c0,0,0,0.1,0,0.1c0,0.1,0.1,0.3,0.2,0.4c0,0,0,0,0,0c0.1,0.1,0.1,0.1,0.2,0.2c0,0,0.1,0,0.1,0.1
	c0,0,0.1,0,0.1,0.1c0.1,0.1,0.3,0.1,0.4,0.2c0,0,0,0,0,0c0,0,0,0,0.1,0c0.1,0,0.3,0,0.4,0c0,0,0.1,0,0.1,0c0,0,0.1,0,0.1,0
	C27.2,63.5,30,52,30.7,48.1c3.7,0.1,14.5,0.2,22.4-4.1c0.7,2.6,1,5.3,1,8c0,1.2-0.1,2.4-0.2,3.5c0,0,0,0.1,0,0.1c0,0,0,0.1,0,0.2
	c-0.3,2.6-0.5,8.7,3.1,10.5c0.9,0.4,2,1.1,2.1,2.2C59.3,69.5,58.7,70.7,57.3,72.2z"/>
<path d="M45.7,58.6c-2.2,0-4.1,1.8-4.1,4.1c0,0.7,0.6,1.4,1.4,1.4c0.7,0,1.4-0.6,1.4-1.4c0-0.7,0.6-1.4,1.4-1.4
	c0.7,0,1.4,0.6,1.4,1.4c0,0.7,0.6,1.4,1.4,1.4c0.7,0,1.4-0.6,1.4-1.4C49.7,60.4,47.9,58.6,45.7,58.6z"/>
<path d="M79.2,52.2c1.2-0.5,2.3-0.3,2-1.1c-0.3-0.9-1.6-1.2-2.7-0.7c-1.2,0.5-1.8,1.5-1.5,2.4C77.3,53.6,78.1,52.6,79.2,52.2z"/>
<path d="M85.7,60.1l-1.2,0.6c-0.7-1.3-2-2.1-3.6-2.1c-2.2,0-4.1,1.8-4.1,4.1c0,0.7,0.6,1.4,1.4,1.4c0.7,0,1.4-0.6,1.4-1.4
	c0-0.7,0.6-1.4,1.4-1.4s1.4,0.6,1.4,1.4c0,0.5,0.2,0.9,0.6,1.2c0.2,0.1,0.5,0.2,0.7,0.2c0.2,0,0.4,0,0.6-0.1l2.7-1.4
	c0.7-0.3,0.9-1.1,0.6-1.8C87.2,60,86.4,59.7,85.7,60.1z"/>
<polygon points="70,56.1 70,56.1 70,56.1 "/>
<path d="M70.1,6.2c0-2.2-1.7-4.6-4.1-4.6c-1,0-2,0.4-2.7,1.2c-0.7-0.7-1.7-1.2-2.7-1.2c-2.4,0-4.1,2.4-4.1,4.5c0,0.4,0.1,4.4,6,8.8
	c0.2,0.2,0.5,0.3,0.8,0.3s0.6-0.1,0.8-0.3C70,10.6,70.1,6.6,70.1,6.2z M63.3,12.1c-4-3.2-4.1-5.9-4.1-5.9c0-0.9,0.7-1.8,1.4-1.8
	c0.6,0,1.3,0.7,1.4,1.5c0.1,0.7,0.7,1.2,1.3,1.2s1.3-0.5,1.3-1.2c0.1-0.8,0.7-1.5,1.4-1.5c0.6,0,1.4,1,1.4,1.9
	C67.4,6.3,67.3,8.9,63.3,12.1z"/>
<path d="M125,22.7c-5.9-4-12.8-6.1-19.9-6.1c-8.4,0-21.6,3.3-23.2,3.6c-1.8,0.1-4,0-6.1-0.1c-1.5-0.1-2.9-0.1-4.2-0.1
	c-0.9,0-2.3,0.4-3.6,2.2c-2.4,3.3-3.6,9.5-2.5,12.9c1.3,4.1,3.1,6.2,5.5,7.9C70.1,46,69.7,49,69.7,52c0,1.3,0.1,2.6,0.2,3.9
	c0,0.1,0,0.1,0,0.2c0,0,0,0,0,0c0.1,0.3,0.2,0.5,0.4,0.7c-0.2-0.2-0.4-0.5-0.4-0.7c0.3,3.2,0,6.9-1.6,7.7c-2.6,1.3-3.4,3-3.6,4.2
	c-0.3,1.8,0.4,3.6,2.1,5.5c-0.2,0.9-0.3,2.5,0.4,4c0.5,1,1.2,1.7,2.2,2.3c-0.2,0.5-0.3,1.1-0.2,1.8c0.2,1.1,0.9,2.1,2.1,2.8
	c0.2,0.5,0.5,1.6,0.5,3c0,1.3,0.8,3.2,2.9,4.8c1.9,1.4,4.9,2.7,9.8,2.7c2.9,0,6.6-0.5,11-1.7c0.3-0.1,0.5-0.2,0.8-0.2
	c0.9,3,2.9,10.8,1.1,16.1c-8.1,4.5-12.1,8.8-12.1,13.2c0,0.7,0.6,1.4,1.4,1.4c0.7,0,1.4-0.6,1.4-1.4c0-2.8,3-8,20-15.2
	c2.9,11.3,6.8,15.4,7,15.6c0.3,0.3,0.7,0.5,1.1,0.5c0.4,0,0.8-0.1,1-0.4c0.6-0.6,0.6-1.5,0-2.1c0,0-3.6-3.9-6.3-14.6
	c-0.2-0.8-0.4-1.7-0.6-2.7c-0.1-0.4-0.2-0.9-0.3-1.3c0-0.1,0-0.2-0.1-0.4c-0.2-1-0.4-1.9-0.5-2.8c-0.4-2.8-0.6-5-0.5-6.8
	c0-2.4,0.4-4.3,0.7-6.2c0.5-2.6,0.9-5.3,0.7-9.5c0-0.5-0.1-1.1-0.1-1.7c-0.3-3.2-1.3-5.8-2.4-8.2c-0.9-1.8-1.9-3.4-3-4.9
	c-0.2-0.3-0.4-0.5-0.5-0.8c-1.2-1.7-2.3-3.4-3.2-5.2c-1.2-2.8-1.9-5.6-2.2-7.3c-0.1-0.4-0.1-0.7-0.2-0.9c-0.1-0.4-0.1-0.6-0.1-0.7
	c0-0.4-0.3-0.7-0.6-0.9c-0.3-0.2-0.7-0.3-1.1-0.2l-0.3,0c-7.6,1.1-14.9,0.2-20.4-2.6c-4-2-6.3-3.4-8-8.5c-0.8-2.5,0.3-7.9,2.1-10.5
	c0.5-0.7,1.1-1.1,1.5-1.1c1.3,0,2.7,0.1,4.1,0.1c2.2,0.1,4.5,0.2,6.5,0.1c0.1,0,0.2,0,0.3,0c0.1,0,14.3-3.6,22.7-3.6
	c6.6,0,13,2,18.4,5.7c0.6,0.4,1.5,0.3,1.9-0.4C125.8,24,125.6,23.2,125,22.7z M106.5,100l-5.7,2.6c-0.2-4.3-1.3-8.4-1.9-10.4
	c2.4-0.7,4.7-1.5,7-2.2C105.7,92.5,105.8,95.7,106.5,100z M100.6,107.4c0.1-0.6,0.1-1.1,0.2-1.7l6.2-2.9c0.1,0.5,0.2,1,0.3,1.5
	C104.9,105.4,102.7,106.4,100.6,107.4z M72.6,55.7c0,0,0-0.1,0-0.1c-0.1-1.2-0.2-2.3-0.2-3.5c0-2.5,0.3-5,0.9-7.5
	c0.5,0.2,0.9,0.5,1.5,0.8c5.8,2.9,13.1,3.9,20.9,3c0.6,6.1,3.3,10.2,6,14c2.5,3.7,4.9,7.2,5.5,12.5c0.5,4.7,0,7.5-0.5,10.4
	c-0.1,0.6-0.2,1.2-0.3,1.8c-3.5,1.3-7.4,2.5-11.5,3.6c-11.3,3.1-16.4,1-18.4-0.6c-1.5-1.1-1.8-2.3-1.8-2.7c0-2.6-0.8-4.4-0.9-4.5
	c-0.1-0.3-0.3-0.5-0.6-0.6c-0.7-0.4-1.1-0.7-1.2-1.1c-0.1-0.4,0.3-0.9,0.5-1c0.3-0.3,0.5-0.8,0.4-1.3c-0.1-0.5-0.5-0.8-0.9-1
	c-1.1-0.3-1.8-0.8-2.1-1.6c-0.6-1.2-0.1-2.7-0.1-2.7c0.2-0.5,0.1-1.1-0.3-1.4c-1.4-1.4-2.1-2.7-1.9-3.7c0.2-1.1,1.3-1.8,2.1-2.2
	C73.2,64.5,72.9,58.3,72.6,55.7z"/>
</svg>
